<?xml version="1.0" encoding="UTF-8" standalone="no"?><!DOCTYPE svg PUBLIC "-//W3C//DTD SVG 1.1//EN" "http://www.w3.org/Graphics/SVG/1.1/DTD/svg11.dtd"><svg width="100%" height="100%" viewBox="0 0 38 38" version="1.1" xmlns="http://www.w3.org/2000/svg" xmlns:xlink="http://www.w3.org/1999/xlink" xml:space="preserve" xmlns:serif="http://www.serif.com/" style="fill-rule:evenodd;clip-rule:evenodd;stroke-linejoin:round;stroke-miterlimit:1.41421;"><circle cx="19" cy="19" r="13.421" style="fill:#fff;"/><path id="path3" d="M19.017,3.773c-8.41,0 -15.228,6.817 -15.228,15.227c0,8.41 6.818,15.227 15.228,15.227c8.41,0 15.227,-6.817 15.227,-15.227c0,-8.41 -6.817,-15.227 -15.227,-15.227Zm7.904,20.612c0,0.261 -0.21,0.472 -0.472,0.472l-1.988,0c-0.262,0 -0.472,-0.211 -0.472,-0.472l0,-6.127c0,-0.05 -0.059,-0.075 -0.101,-0.042l-4.214,4.214c-0.362,0.362 -0.961,0.362 -1.323,0l-4.213,-4.214c-0.034,-0.033 -0.101,-0.008 -0.101,0.042l0,6.127c0,0.261 -0.211,0.472 -0.472,0.472l-1.989,0c-0.261,0 -0.472,-0.211 -0.472,-0.472l0,-10.77c0,-0.261 0.211,-0.472 0.472,-0.472l1.365,0c0.244,0 0.489,0.101 0.666,0.278l5.241,5.242c0.093,0.093 0.236,0.093 0.329,0l5.241,-5.242c0.177,-0.177 0.413,-0.278 0.666,-0.278l1.365,0c0.262,0 0.472,0.211 0.472,0.472l0,10.77Z" style="fill:#d9272e;fill-rule:nonzero;"/></svg>